<?xml version="1.0" encoding="UTF-8" standalone="no"?>
<!DOCTYPE svg PUBLIC "-//W3C//DTD SVG 1.1//EN"
 "http://www.w3.org/Graphics/SVG/1.1/DTD/svg11.dtd">
<!-- Generated by graphviz version 2.40.1 (20161225.0304)
 -->
<!-- Title: dependencies Pages: 1 -->
<svg width="504pt" height="284pt"
 viewBox="0.00 0.00 504.00 284.00" xmlns="http://www.w3.org/2000/svg" xmlns:xlink="http://www.w3.org/1999/xlink">
<g id="graph0" class="graph" transform="scale(1 1) rotate(0) translate(4 280)">
<title>dependencies</title>
<polygon fill="#ffffff" stroke="transparent" points="-4,4 -4,-280 500,-280 500,4 -4,4"/>
<text text-anchor="start" x="227.0091" y="-42.4" font-family="sans-serif" font-weight="bold" font-size="14.00" fill="#000000">Legend</text>
<polygon fill="#ffffb3" stroke="transparent" points="14,-10 14,-30 34,-30 34,-10 14,-10"/>
<text text-anchor="start" x="37.629" y="-15.4" font-family="sans-serif" font-size="14.00" fill="#000000"> &#160;Declarations</text>
<polygon fill="#8dd3c7" stroke="transparent" points="127,-10 127,-30 147,-30 147,-10 127,-10"/>
<text text-anchor="start" x="150.7251" y="-15.4" font-family="sans-serif" font-size="14.00" fill="#000000"> &#160;Module</text>
<polygon fill="#80b1d3" stroke="transparent" points="213,-10 213,-30 233,-30 233,-10 213,-10"/>
<text text-anchor="start" x="236.7812" y="-15.4" font-family="sans-serif" font-size="14.00" fill="#000000"> &#160;Bootstrap</text>
<polygon fill="#fdb462" stroke="transparent" points="310,-10 310,-30 330,-30 330,-10 310,-10"/>
<text text-anchor="start" x="333.6732" y="-15.4" font-family="sans-serif" font-size="14.00" fill="#000000"> &#160;Providers</text>
<polygon fill="#fb8072" stroke="transparent" points="406,-10 406,-30 426,-30 426,-10 406,-10"/>
<text text-anchor="start" x="429.7258" y="-15.4" font-family="sans-serif" font-size="14.00" fill="#000000"> &#160;Exports</text>
<g id="clust1" class="cluster">
<title>cluster_CoreModule</title>
<polygon fill="none" stroke="#000000" stroke-dasharray="1,5" points="24,-70 24,-268 472,-268 472,-70 24,-70"/>
</g>
<g id="clust2" class="cluster">
<title>cluster_CoreModule_declarations</title>
<polygon fill="none" stroke="#000000" points="190,-78 190,-130 464,-130 464,-78 190,-78"/>
</g>
<g id="clust5" class="cluster">
<title>cluster_CoreModule_imports</title>
<polygon fill="none" stroke="#000000" points="32,-78 32,-130 182,-130 182,-78 32,-78"/>
</g>
<g id="clust6" class="cluster">
<title>cluster_CoreModule_exports</title>
<polygon fill="none" stroke="#000000" points="114,-208 114,-260 396,-260 396,-208 114,-208"/>
</g>
<!-- FooterComponent -->
<g id="node1" class="node">
<title>FooterComponent</title>
<polygon fill="#ffffb3" stroke="#000000" points="455.8809,-122 338.1191,-122 338.1191,-86 455.8809,-86 455.8809,-122"/>
<text text-anchor="middle" x="397" y="-99.8" font-family="Times,serif" font-size="14.00" fill="#000000">FooterComponent</text>
</g>
<!-- CoreModule -->
<g id="node3" class="node">
<title>CoreModule</title>
<polygon fill="#8dd3c7" stroke="#000000" points="302.2619,-187 299.2619,-191 278.2619,-191 275.2619,-187 215.7381,-187 215.7381,-151 302.2619,-151 302.2619,-187"/>
<text text-anchor="middle" x="259" y="-164.8" font-family="Times,serif" font-size="14.00" fill="#000000">CoreModule</text>
</g>
<!-- FooterComponent&#45;&gt;CoreModule -->
<g id="edge1" class="edge">
<title>FooterComponent&#45;&gt;CoreModule</title>
<path fill="none" stroke="#000000" d="M362.875,-122.1061C362.875,-141.3391 362.875,-169 362.875,-169 362.875,-169 312.4505,-169 312.4505,-169"/>
<polygon fill="#000000" stroke="#000000" points="312.4505,-165.5001 302.4505,-169 312.4504,-172.5001 312.4505,-165.5001"/>
</g>
<!-- NavbarComponent -->
<g id="node2" class="node">
<title>NavbarComponent</title>
<polygon fill="#ffffb3" stroke="#000000" points="320.0297,-122 197.9703,-122 197.9703,-86 320.0297,-86 320.0297,-122"/>
<text text-anchor="middle" x="259" y="-99.8" font-family="Times,serif" font-size="14.00" fill="#000000">NavbarComponent</text>
</g>
<!-- NavbarComponent&#45;&gt;CoreModule -->
<g id="edge2" class="edge">
<title>NavbarComponent&#45;&gt;CoreModule</title>
<path fill="none" stroke="#000000" d="M259,-122.1061C259,-122.1061 259,-140.991 259,-140.991"/>
<polygon fill="#000000" stroke="#000000" points="255.5001,-140.9909 259,-150.991 262.5001,-140.991 255.5001,-140.9909"/>
</g>
<!-- FooterComponent  -->
<g id="node5" class="node">
<title>FooterComponent </title>
<polygon fill="#fb8072" stroke="#000000" points="387.8814,-252 266.1186,-252 266.1186,-216 387.8814,-216 387.8814,-252"/>
<text text-anchor="middle" x="327" y="-229.8" font-family="Times,serif" font-size="14.00" fill="#000000">FooterComponent </text>
</g>
<!-- CoreModule&#45;&gt;FooterComponent  -->
<g id="edge4" class="edge">
<title>CoreModule&#45;&gt;FooterComponent </title>
<path fill="none" stroke="#000000" stroke-dasharray="5,2" d="M284.3452,-187.1061C284.3452,-187.1061 284.3452,-205.991 284.3452,-205.991"/>
<polygon fill="#000000" stroke="#000000" points="280.8453,-205.9909 284.3452,-215.991 287.8453,-205.991 280.8453,-205.9909"/>
</g>
<!-- NavbarComponent  -->
<g id="node6" class="node">
<title>NavbarComponent </title>
<polygon fill="#fb8072" stroke="#000000" points="248.0288,-252 121.9712,-252 121.9712,-216 248.0288,-216 248.0288,-252"/>
<text text-anchor="middle" x="185" y="-229.8" font-family="Times,serif" font-size="14.00" fill="#000000">NavbarComponent </text>
</g>
<!-- CoreModule&#45;&gt;NavbarComponent  -->
<g id="edge5" class="edge">
<title>CoreModule&#45;&gt;NavbarComponent </title>
<path fill="none" stroke="#000000" stroke-dasharray="5,2" d="M231.8168,-187.1061C231.8168,-187.1061 231.8168,-205.991 231.8168,-205.991"/>
<polygon fill="#000000" stroke="#000000" points="228.3169,-205.9909 231.8168,-215.991 235.3169,-205.991 228.3169,-205.9909"/>
</g>
<!-- CoreMaterialModule -->
<g id="node4" class="node">
<title>CoreMaterialModule</title>
<polygon fill="#8dd3c7" stroke="#000000" points="174.1825,-122 171.1825,-126 150.1825,-126 147.1825,-122 39.8175,-122 39.8175,-86 174.1825,-86 174.1825,-122"/>
<text text-anchor="middle" x="107" y="-99.8" font-family="Times,serif" font-size="14.00" fill="#000000">CoreMaterialModule</text>
</g>
<!-- CoreMaterialModule&#45;&gt;CoreModule -->
<g id="edge3" class="edge">
<title>CoreMaterialModule&#45;&gt;CoreModule</title>
<path fill="none" stroke="#000000" d="M148.0384,-122.1061C148.0384,-141.3391 148.0384,-169 148.0384,-169 148.0384,-169 205.4635,-169 205.4635,-169"/>
<polygon fill="#000000" stroke="#000000" points="205.4635,-172.5001 215.4635,-169 205.4635,-165.5001 205.4635,-172.5001"/>
</g>
</g>
</svg>
