<?xml version="1.0" encoding="UTF-8" standalone="no"?>
<!DOCTYPE svg PUBLIC "-//W3C//DTD SVG 1.1//EN"
 "http://www.w3.org/Graphics/SVG/1.1/DTD/svg11.dtd">
<!-- Generated by graphviz version 2.40.1 (20161225.0304)
 -->
<!-- Title: dependencies Pages: 1 -->
<svg width="1924pt" height="284pt"
 viewBox="0.00 0.00 1924.00 284.00" xmlns="http://www.w3.org/2000/svg" xmlns:xlink="http://www.w3.org/1999/xlink">
<g id="graph0" class="graph" transform="scale(1 1) rotate(0) translate(4 280)">
<title>dependencies</title>
<polygon fill="#ffffff" stroke="transparent" points="-4,4 -4,-280 1920,-280 1920,4 -4,4"/>
<text text-anchor="start" x="937.0091" y="-42.4" font-family="sans-serif" font-weight="bold" font-size="14.00" fill="#000000">Legend</text>
<polygon fill="#ffffb3" stroke="transparent" points="724,-10 724,-30 744,-30 744,-10 724,-10"/>
<text text-anchor="start" x="747.629" y="-15.4" font-family="sans-serif" font-size="14.00" fill="#000000"> &#160;Declarations</text>
<polygon fill="#8dd3c7" stroke="transparent" points="837,-10 837,-30 857,-30 857,-10 837,-10"/>
<text text-anchor="start" x="860.7251" y="-15.4" font-family="sans-serif" font-size="14.00" fill="#000000"> &#160;Module</text>
<polygon fill="#80b1d3" stroke="transparent" points="923,-10 923,-30 943,-30 943,-10 923,-10"/>
<text text-anchor="start" x="946.7812" y="-15.4" font-family="sans-serif" font-size="14.00" fill="#000000"> &#160;Bootstrap</text>
<polygon fill="#fdb462" stroke="transparent" points="1020,-10 1020,-30 1040,-30 1040,-10 1020,-10"/>
<text text-anchor="start" x="1043.6732" y="-15.4" font-family="sans-serif" font-size="14.00" fill="#000000"> &#160;Providers</text>
<polygon fill="#fb8072" stroke="transparent" points="1116,-10 1116,-30 1136,-30 1136,-10 1116,-10"/>
<text text-anchor="start" x="1139.7258" y="-15.4" font-family="sans-serif" font-size="14.00" fill="#000000"> &#160;Exports</text>
<g id="clust1" class="cluster">
<title>cluster_SharedModule</title>
<polygon fill="none" stroke="#000000" stroke-dasharray="1,5" points="8,-70 8,-268 1908,-268 1908,-70 8,-70"/>
</g>
<g id="clust2" class="cluster">
<title>cluster_SharedModule_declarations</title>
<polygon fill="none" stroke="#000000" points="186,-78 186,-130 1900,-130 1900,-78 186,-78"/>
</g>
<g id="clust13" class="cluster">
<title>cluster_SharedModule_imports</title>
<polygon fill="none" stroke="#000000" points="16,-78 16,-130 178,-130 178,-78 16,-78"/>
</g>
<g id="clust14" class="cluster">
<title>cluster_SharedModule_exports</title>
<polygon fill="none" stroke="#000000" points="314,-208 314,-260 1593,-260 1593,-208 314,-208"/>
</g>
<!-- CharacterCountPipe -->
<g id="node1" class="node">
<title>CharacterCountPipe</title>
<polygon fill="#ffffb3" stroke="#000000" points="1891.5227,-122 1762.4773,-122 1762.4773,-86 1891.5227,-86 1891.5227,-122"/>
<text text-anchor="middle" x="1827" y="-99.8" font-family="Times,serif" font-size="14.00" fill="#000000">CharacterCountPipe</text>
</g>
<!-- SharedModule -->
<g id="node11" class="node">
<title>SharedModule</title>
<polygon fill="#8dd3c7" stroke="#000000" points="968.4231,-187 965.4231,-191 944.4231,-191 941.4231,-187 869.5769,-187 869.5769,-151 968.4231,-151 968.4231,-187"/>
<text text-anchor="middle" x="919" y="-164.8" font-family="Times,serif" font-size="14.00" fill="#000000">SharedModule</text>
</g>
<!-- CharacterCountPipe&#45;&gt;SharedModule -->
<g id="edge1" class="edge">
<title>CharacterCountPipe&#45;&gt;SharedModule</title>
<path fill="none" stroke="#000000" d="M1827,-122.308C1827,-142.1455 1827,-171 1827,-171 1827,-171 978.4628,-171 978.4628,-171"/>
<polygon fill="#000000" stroke="#000000" points="978.4629,-167.5001 968.4628,-171 978.4628,-174.5001 978.4629,-167.5001"/>
</g>
<!-- CommentActionsComponent -->
<g id="node2" class="node">
<title>CommentActionsComponent</title>
<polygon fill="#ffffb3" stroke="#000000" points="1744.1024,-122 1563.8976,-122 1563.8976,-86 1744.1024,-86 1744.1024,-122"/>
<text text-anchor="middle" x="1654" y="-99.8" font-family="Times,serif" font-size="14.00" fill="#000000">CommentActionsComponent</text>
</g>
<!-- CommentActionsComponent&#45;&gt;SharedModule -->
<g id="edge2" class="edge">
<title>CommentActionsComponent&#45;&gt;SharedModule</title>
<path fill="none" stroke="#000000" d="M1574.375,-122.2222C1574.375,-140.8285 1574.375,-167 1574.375,-167 1574.375,-167 978.2596,-167 978.2596,-167"/>
<polygon fill="#000000" stroke="#000000" points="978.2597,-163.5001 968.2596,-167 978.2596,-170.5001 978.2597,-163.5001"/>
</g>
<!-- CommentCardComponent -->
<g id="node3" class="node">
<title>CommentCardComponent</title>
<polygon fill="#ffffb3" stroke="#000000" points="1545.7674,-122 1382.2326,-122 1382.2326,-86 1545.7674,-86 1545.7674,-122"/>
<text text-anchor="middle" x="1464" y="-99.8" font-family="Times,serif" font-size="14.00" fill="#000000">CommentCardComponent</text>
</g>
<!-- CommentCardComponent&#45;&gt;SharedModule -->
<g id="edge3" class="edge">
<title>CommentCardComponent&#45;&gt;SharedModule</title>
<path fill="none" stroke="#000000" d="M1392.4162,-122.0225C1392.4162,-139.3734 1392.4162,-163 1392.4162,-163 1392.4162,-163 978.3241,-163 978.3241,-163"/>
<polygon fill="#000000" stroke="#000000" points="978.3241,-159.5001 968.3241,-163 978.324,-166.5001 978.3241,-159.5001"/>
</g>
<!-- CustomSnackbarComponent -->
<g id="node4" class="node">
<title>CustomSnackbarComponent</title>
<polygon fill="#ffffb3" stroke="#000000" points="1364.4818,-122 1187.5182,-122 1187.5182,-86 1364.4818,-86 1364.4818,-122"/>
<text text-anchor="middle" x="1276" y="-99.8" font-family="Times,serif" font-size="14.00" fill="#000000">CustomSnackbarComponent</text>
</g>
<!-- CustomSnackbarComponent&#45;&gt;SharedModule -->
<g id="edge4" class="edge">
<title>CustomSnackbarComponent&#45;&gt;SharedModule</title>
<path fill="none" stroke="#000000" d="M1192.875,-122.0091C1192.875,-138.0494 1192.875,-159 1192.875,-159 1192.875,-159 978.2797,-159 978.2797,-159"/>
<polygon fill="#000000" stroke="#000000" points="978.2797,-155.5001 968.2797,-159 978.2796,-162.5001 978.2797,-155.5001"/>
</g>
<!-- MenuOptionsComponent -->
<g id="node5" class="node">
<title>MenuOptionsComponent</title>
<polygon fill="#ffffb3" stroke="#000000" points="1169.3243,-122 1010.6757,-122 1010.6757,-86 1169.3243,-86 1169.3243,-122"/>
<text text-anchor="middle" x="1090" y="-99.8" font-family="Times,serif" font-size="14.00" fill="#000000">MenuOptionsComponent</text>
</g>
<!-- MenuOptionsComponent&#45;&gt;SharedModule -->
<g id="edge5" class="edge">
<title>MenuOptionsComponent&#45;&gt;SharedModule</title>
<path fill="none" stroke="#000000" d="M1118.6944,-122.1243C1118.6944,-136.7832 1118.6944,-155 1118.6944,-155 1118.6944,-155 978.3627,-155 978.3627,-155"/>
<polygon fill="#000000" stroke="#000000" points="978.3627,-151.5001 968.3627,-155 978.3626,-158.5001 978.3627,-151.5001"/>
</g>
<!-- NameInitialComponent -->
<g id="node6" class="node">
<title>NameInitialComponent</title>
<polygon fill="#ffffb3" stroke="#000000" points="993.1965,-122 844.8035,-122 844.8035,-86 993.1965,-86 993.1965,-122"/>
<text text-anchor="middle" x="919" y="-99.8" font-family="Times,serif" font-size="14.00" fill="#000000">NameInitialComponent</text>
</g>
<!-- NameInitialComponent&#45;&gt;SharedModule -->
<g id="edge6" class="edge">
<title>NameInitialComponent&#45;&gt;SharedModule</title>
<path fill="none" stroke="#000000" d="M919,-122.1061C919,-122.1061 919,-140.991 919,-140.991"/>
<polygon fill="#000000" stroke="#000000" points="915.5001,-140.9909 919,-150.991 922.5001,-140.991 915.5001,-140.9909"/>
</g>
<!-- PostCardComponent -->
<g id="node7" class="node">
<title>PostCardComponent</title>
<polygon fill="#ffffb3" stroke="#000000" points="827.1624,-122 694.8376,-122 694.8376,-86 827.1624,-86 827.1624,-122"/>
<text text-anchor="middle" x="761" y="-99.8" font-family="Times,serif" font-size="14.00" fill="#000000">PostCardComponent</text>
</g>
<!-- PostCardComponent&#45;&gt;SharedModule -->
<g id="edge7" class="edge">
<title>PostCardComponent&#45;&gt;SharedModule</title>
<path fill="none" stroke="#000000" d="M823.706,-122.1243C823.706,-136.7832 823.706,-155 823.706,-155 823.706,-155 859.6782,-155 859.6782,-155"/>
<polygon fill="#000000" stroke="#000000" points="859.6783,-158.5001 869.6782,-155 859.6782,-151.5001 859.6783,-158.5001"/>
</g>
<!-- PostCollectionComponent -->
<g id="node8" class="node">
<title>PostCollectionComponent</title>
<polygon fill="#ffffb3" stroke="#000000" points="676.7785,-122 513.2215,-122 513.2215,-86 676.7785,-86 676.7785,-122"/>
<text text-anchor="middle" x="595" y="-99.8" font-family="Times,serif" font-size="14.00" fill="#000000">PostCollectionComponent</text>
</g>
<!-- PostCollectionComponent&#45;&gt;SharedModule -->
<g id="edge8" class="edge">
<title>PostCollectionComponent&#45;&gt;SharedModule</title>
<path fill="none" stroke="#000000" d="M671.2642,-122.0091C671.2642,-138.0494 671.2642,-159 671.2642,-159 671.2642,-159 859.7592,-159 859.7592,-159"/>
<polygon fill="#000000" stroke="#000000" points="859.7592,-162.5001 869.7592,-159 859.7591,-155.5001 859.7592,-162.5001"/>
</g>
<!-- PostInfoComponent -->
<g id="node9" class="node">
<title>PostInfoComponent</title>
<polygon fill="#ffffb3" stroke="#000000" points="495.2716,-122 366.7284,-122 366.7284,-86 495.2716,-86 495.2716,-122"/>
<text text-anchor="middle" x="431" y="-99.8" font-family="Times,serif" font-size="14.00" fill="#000000">PostInfoComponent</text>
</g>
<!-- PostInfoComponent&#45;&gt;SharedModule -->
<g id="edge9" class="edge">
<title>PostInfoComponent&#45;&gt;SharedModule</title>
<path fill="none" stroke="#000000" d="M487.6717,-122.0225C487.6717,-139.3734 487.6717,-163 487.6717,-163 487.6717,-163 859.5212,-163 859.5212,-163"/>
<polygon fill="#000000" stroke="#000000" points="859.5212,-166.5001 869.5212,-163 859.5211,-159.5001 859.5212,-166.5001"/>
</g>
<!-- PostWrapperComponent -->
<g id="node10" class="node">
<title>PostWrapperComponent</title>
<polygon fill="#ffffb3" stroke="#000000" points="348.4158,-122 193.5842,-122 193.5842,-86 348.4158,-86 348.4158,-122"/>
<text text-anchor="middle" x="271" y="-99.8" font-family="Times,serif" font-size="14.00" fill="#000000">PostWrapperComponent</text>
</g>
<!-- PostWrapperComponent&#45;&gt;SharedModule -->
<g id="edge10" class="edge">
<title>PostWrapperComponent&#45;&gt;SharedModule</title>
<path fill="none" stroke="#000000" d="M335.125,-122.2222C335.125,-140.8285 335.125,-167 335.125,-167 335.125,-167 859.7224,-167 859.7224,-167"/>
<polygon fill="#000000" stroke="#000000" points="859.7224,-170.5001 869.7224,-167 859.7223,-163.5001 859.7224,-170.5001"/>
</g>
<!-- CommentActionsComponent  -->
<g id="node13" class="node">
<title>CommentActionsComponent </title>
<polygon fill="#fb8072" stroke="#000000" points="1584.6028,-252 1401.3972,-252 1401.3972,-216 1584.6028,-216 1584.6028,-252"/>
<text text-anchor="middle" x="1493" y="-229.8" font-family="Times,serif" font-size="14.00" fill="#000000">CommentActionsComponent </text>
</g>
<!-- SharedModule&#45;&gt;CommentActionsComponent  -->
<g id="edge12" class="edge">
<title>SharedModule&#45;&gt;CommentActionsComponent </title>
<path fill="none" stroke="#000000" stroke-dasharray="5,2" d="M968.2118,-175C1103.9289,-175 1473.5412,-175 1473.5412,-175 1473.5412,-175 1473.5412,-205.9775 1473.5412,-205.9775"/>
<polygon fill="#000000" stroke="#000000" points="1470.0413,-205.9774 1473.5412,-215.9775 1477.0413,-205.9775 1470.0413,-205.9774"/>
</g>
<!-- CommentCardComponent  -->
<g id="node14" class="node">
<title>CommentCardComponent </title>
<polygon fill="#fb8072" stroke="#000000" points="1383.7674,-252 1216.2326,-252 1216.2326,-216 1383.7674,-216 1383.7674,-252"/>
<text text-anchor="middle" x="1300" y="-229.8" font-family="Times,serif" font-size="14.00" fill="#000000">CommentCardComponent </text>
</g>
<!-- SharedModule&#45;&gt;CommentCardComponent  -->
<g id="edge13" class="edge">
<title>SharedModule&#45;&gt;CommentCardComponent </title>
<path fill="none" stroke="#000000" stroke-dasharray="5,2" d="M968.3229,-179C1069.3587,-179 1290.4287,-179 1290.4287,-179 1290.4287,-179 1290.4287,-205.9909 1290.4287,-205.9909"/>
<polygon fill="#000000" stroke="#000000" points="1286.9287,-205.9909 1290.4287,-215.9909 1293.9287,-205.991 1286.9287,-205.9909"/>
</g>
<!-- CustomSnackbarComponent  -->
<g id="node15" class="node">
<title>CustomSnackbarComponent </title>
<polygon fill="#fb8072" stroke="#000000" points="1198.4824,-252 1017.5176,-252 1017.5176,-216 1198.4824,-216 1198.4824,-252"/>
<text text-anchor="middle" x="1108" y="-229.8" font-family="Times,serif" font-size="14.00" fill="#000000">CustomSnackbarComponent </text>
</g>
<!-- SharedModule&#45;&gt;CustomSnackbarComponent  -->
<g id="edge14" class="edge">
<title>SharedModule&#45;&gt;CustomSnackbarComponent </title>
<path fill="none" stroke="#000000" stroke-dasharray="5,2" d="M968.276,-183C1011.7424,-183 1068.2267,-183 1068.2267,-183 1068.2267,-183 1068.2267,-205.8757 1068.2267,-205.8757"/>
<polygon fill="#000000" stroke="#000000" points="1064.7268,-205.8757 1068.2267,-215.8757 1071.7268,-205.8757 1064.7268,-205.8757"/>
</g>
<!-- MenuOptionsComponent  -->
<g id="node16" class="node">
<title>MenuOptionsComponent </title>
<polygon fill="#fb8072" stroke="#000000" points="999.8241,-252 838.1759,-252 838.1759,-216 999.8241,-216 999.8241,-252"/>
<text text-anchor="middle" x="919" y="-229.8" font-family="Times,serif" font-size="14.00" fill="#000000">MenuOptionsComponent </text>
</g>
<!-- SharedModule&#45;&gt;MenuOptionsComponent  -->
<g id="edge15" class="edge">
<title>SharedModule&#45;&gt;MenuOptionsComponent </title>
<path fill="none" stroke="#000000" stroke-dasharray="5,2" d="M919,-187.1061C919,-187.1061 919,-205.991 919,-205.991"/>
<polygon fill="#000000" stroke="#000000" points="915.5001,-205.9909 919,-215.991 922.5001,-205.991 915.5001,-205.9909"/>
</g>
<!-- PostCardComponent  -->
<g id="node17" class="node">
<title>PostCardComponent </title>
<polygon fill="#fb8072" stroke="#000000" points="820.1621,-252 683.8379,-252 683.8379,-216 820.1621,-216 820.1621,-252"/>
<text text-anchor="middle" x="752" y="-229.8" font-family="Times,serif" font-size="14.00" fill="#000000">PostCardComponent </text>
</g>
<!-- SharedModule&#45;&gt;PostCardComponent  -->
<g id="edge16" class="edge">
<title>SharedModule&#45;&gt;PostCardComponent </title>
<path fill="none" stroke="#000000" stroke-dasharray="5,2" d="M869.629,-183C822.098,-183 757.375,-183 757.375,-183 757.375,-183 757.375,-205.8757 757.375,-205.8757"/>
<polygon fill="#000000" stroke="#000000" points="753.8751,-205.8757 757.375,-215.8757 760.8751,-205.8757 753.8751,-205.8757"/>
</g>
<!-- PostCollectionComponent  -->
<g id="node18" class="node">
<title>PostCollectionComponent </title>
<polygon fill="#fb8072" stroke="#000000" points="665.7786,-252 498.2214,-252 498.2214,-216 665.7786,-216 665.7786,-252"/>
<text text-anchor="middle" x="582" y="-229.8" font-family="Times,serif" font-size="14.00" fill="#000000">PostCollectionComponent </text>
</g>
<!-- SharedModule&#45;&gt;PostCollectionComponent  -->
<g id="edge17" class="edge">
<title>SharedModule&#45;&gt;PostCollectionComponent </title>
<path fill="none" stroke="#000000" stroke-dasharray="5,2" d="M869.6518,-179C777.6975,-179 589.375,-179 589.375,-179 589.375,-179 589.375,-205.9909 589.375,-205.9909"/>
<polygon fill="#000000" stroke="#000000" points="585.8751,-205.9909 589.375,-215.9909 592.8751,-205.991 585.8751,-205.9909"/>
</g>
<!-- PostWrapperComponent  -->
<g id="node19" class="node">
<title>PostWrapperComponent </title>
<polygon fill="#fb8072" stroke="#000000" points="479.9152,-252 322.0848,-252 322.0848,-216 479.9152,-216 479.9152,-252"/>
<text text-anchor="middle" x="401" y="-229.8" font-family="Times,serif" font-size="14.00" fill="#000000">PostWrapperComponent </text>
</g>
<!-- SharedModule&#45;&gt;PostWrapperComponent  -->
<g id="edge18" class="edge">
<title>SharedModule&#45;&gt;PostWrapperComponent </title>
<path fill="none" stroke="#000000" stroke-dasharray="5,2" d="M869.6567,-175C744.2717,-175 423.286,-175 423.286,-175 423.286,-175 423.286,-205.9775 423.286,-205.9775"/>
<polygon fill="#000000" stroke="#000000" points="419.786,-205.9774 423.286,-215.9775 426.786,-205.9775 419.786,-205.9774"/>
</g>
<!-- SharedMaterialModule -->
<g id="node12" class="node">
<title>SharedMaterialModule</title>
<polygon fill="#8dd3c7" stroke="#000000" points="169.8431,-122 166.8431,-126 145.8431,-126 142.8431,-122 24.1569,-122 24.1569,-86 169.8431,-86 169.8431,-122"/>
<text text-anchor="middle" x="97" y="-99.8" font-family="Times,serif" font-size="14.00" fill="#000000">SharedMaterialModule</text>
</g>
<!-- SharedMaterialModule&#45;&gt;SharedModule -->
<g id="edge11" class="edge">
<title>SharedMaterialModule&#45;&gt;SharedModule</title>
<path fill="none" stroke="#000000" d="M97,-122.308C97,-142.1455 97,-171 97,-171 97,-171 859.737,-171 859.737,-171"/>
<polygon fill="#000000" stroke="#000000" points="859.737,-174.5001 869.737,-171 859.737,-167.5001 859.737,-174.5001"/>
</g>
</g>
</svg>
