<?xml version="1.0" encoding="utf-8"?>
<!-- Generator: Adobe Illustrator 23.0.3, SVG Export Plug-In . SVG Version: 6.00 Build 0)  -->
<svg version="1.1" id="Layer_1" xmlns="http://www.w3.org/2000/svg" xmlns:xlink="http://www.w3.org/1999/xlink" x="0px" y="0px"
	 viewBox="0 0 512 512" style="enable-background:new 0 0 512 512;" xml:space="preserve">
<style type="text/css">
	.st0{display:none;}
	.st1{display:inline;fill-rule:evenodd;clip-rule:evenodd;fill:#FD4848;}
	.st2{display:inline;fill-rule:evenodd;clip-rule:evenodd;fill:#FFEEDA;}
	.st3{fill-rule:evenodd;clip-rule:evenodd;fill:#53C9D8;}
	.st4{fill:#B4D3FA;}
	.st5{fill:#111C44;}
	.st6{fill-rule:evenodd;clip-rule:evenodd;fill:#FFEEDA;}
</style>
<g class="st0">
	<path class="st1" d="M286.7,40.7l184.5,184.5l30.7-30.8c-12.7-12.7-12.7-33.4,0-46.1l-45.8-45.8c-12.7,12.7-33.4,12.7-46.1,0
		c-12.7-12.7-12.7-33.4,0-46.1L363.6,10c-12.7,12.7-33.4,12.7-46.1,0L286.7,40.7z"/>
	<path class="st2" d="M471.2,225.2L286.7,40.7l-246,246l184.5,184.5L471.2,225.2z M283.9,324.9c-7.8,7.8-22.2,9.5-32.1,3.8
		s-11.6-16.7-3.8-24.5c7.8-7.8,22.2-9.5,32.1-3.8C290,306.1,291.7,317.1,283.9,324.9z M185.5,286.2c-7.8,7.8-22.2,9.5-32.1,3.8
		c-9.9-5.7-11.6-16.7-3.8-24.5c7.8-7.8,22.2-9.5,32.1-3.8S193.3,278.4,185.5,286.2z M237.8,233.9l37-37l98.4,38.7l-37,37
		L237.8,233.9z"/>
	<path class="st3" d="M373.2,235.6l-98.4-38.7l-37,37l98.4,38.7L373.2,235.6z"/>
	<path class="st3" d="M185.5,286.2c7.8-7.8,6.1-18.8-3.8-24.5s-24.3-4-32.1,3.8c-7.8,7.8-6.1,18.8,3.8,24.5S177.7,294,185.5,286.2z"
		/>
	<path class="st3" d="M248,304.2c-7.8,7.8-6.1,18.8,3.8,24.5s24.3,4,32.1-3.8c7.8-7.8,6.1-18.8-3.8-24.5
		C270.2,294.7,255.8,296.4,248,304.2z"/>
	<path class="st1" d="M225.2,471.2L40.7,286.7L10,317.5c12.7,12.7,12.7,33.4,0,46.1l46.5,46.5c12.7-12.7,33.4-12.7,46.1,0
		s12.7,33.4,0,46.1l45.8,45.8c12.7-12.7,33.4-12.7,46.1,0L225.2,471.2z"/>
	<polygon class="st2" points="227.1,179 311,154 413,221 364,300.9 286.7,354 190.4,338 112,293.4 190.4,193 	"/>
</g>
<path class="st4" d="M276.7,28.5c27.2,0.4,58.1,5.6,76.1,23.7c18,18.1,33.2,41.9,29.6,70.1c-3.5,28.2,0,2.6,0,2.6
	c0.6,54.4-48.2,92.9-102.6,92.2c-54.4-0.7-93.9-40.3-94.5-94.7l0.1,11.2C184.9,79.1,222.3,27.8,276.7,28.5z"/>
<path class="st5" d="M237.1,100.4c2.6,0,5.1-1,7.1-2.9l0.2-0.2c3.9-3.9,3.9-10.2,0-14.1s-10.2-3.9-14.1,0l-0.2,0.2
	c-3.9,3.9-3.9,10.2,0,14.1C232,99.4,234.5,100.4,237.1,100.4z"/>
<path class="st5" d="M502.4,171.4c0-6,2.4-11.7,6.6-16c1.9-1.9,2.9-4.4,2.9-7.1s-1.1-5.2-2.9-7.1l-45.8-45.8
	c-3.9-3.9-10.2-3.9-14.1,0c-4.3,4.3-9.9,6.6-16,6.6c-6,0-11.7-2.4-16-6.6c-8.8-8.8-8.8-23.2,0-32c3.9-3.9,3.9-10.2,0-14.1L370.7,2.9
	c-1.9-1.9-4.4-2.9-7.1-2.9s-5.2,1.1-7.1,2.9c-4.3,4.3-9.9,6.6-16,6.6c-6,0-11.7-2.4-16-6.6c-1.9-1.9-4.4-2.9-7.1-2.9
	s-5.2,1.1-7.1,2.9l-52,52c-3.9,3.9-3.9,10.2,0,14.1s10.2,3.9,14.1,0l14.1-14.1l170.4,170.4L225.3,457.1L54.9,286.8l169-168.9
	c3.9-3.9,3.9-10.2,0-14.1c-3.9-3.9-10.2-3.9-14.1,0L2.9,310.4c-1.9,1.9-2.9,4.4-2.9,7.1s1.1,5.2,2.9,7.1c4.3,4.3,6.6,9.9,6.6,16
	c0,6-2.4,11.7-6.6,16C1.1,358.4,0,361,0,363.6s1.1,5.2,2.9,7.1l46.5,46.5c1.9,1.9,4.4,2.9,7.1,2.9c2.7,0,5.2-1.1,7.1-2.9
	c4.3-4.3,9.9-6.6,16-6.6c6,0,11.7,2.4,16,6.6c4.3,4.3,6.6,9.9,6.6,16c0,6-2.4,11.7-6.6,16c-3.9,3.9-3.9,10.2,0,14.1l45.8,45.8
	c2,2,4.5,2.9,7.1,2.9s5.1-1,7.1-2.9c4.3-4.3,9.9-6.6,16-6.6c6,0,11.7,2.4,16,6.6c1.9,1.9,4.4,2.9,7.1,2.9c2.7,0,5.2-1.1,7.1-2.9
	l307.5-307.5c1.9-1.9,2.9-4.4,2.9-7.1s-1.1-5.2-2.9-7.1C504.8,183.2,502.4,177.5,502.4,171.4z M193.7,488.7
	c-6.6-4.1-14.3-6.2-22.2-6.2s-15.6,2.2-22.2,6.2l-33.3-33.3c4.1-6.6,6.2-14.3,6.2-22.2c0-11.4-4.4-22.1-12.5-30.1
	c-8-8.1-18.8-12.5-30.1-12.5c0,0,0,0,0,0c-8,0-15.6,2.2-22.2,6.2l-34-34c4.1-6.6,6.2-14.3,6.2-22.2c0-8-2.2-15.6-6.2-22.2l17.4-17.4
	l170.4,170.4L193.7,488.7z M488.7,193.7l-17.4,17.4L300.9,40.8l17.4-17.4c6.6,4.1,14.3,6.2,22.2,6.2c8,0,15.6-2.2,22.2-6.2l34,34
	c-10,16.4-7.9,38.2,6.2,52.4c8.1,8.1,18.8,12.5,30.1,12.5c8,0,15.6-2.2,22.2-6.2l33.3,33.3c-4.1,6.6-6.2,14.3-6.2,22.2
	C482.4,179.4,484.6,187,488.7,193.7z"/>
<path class="st5" d="M268.4,360.7c-3.9-3.9-10.2-3.9-14.1,0c-3.9,3.9-3.9,10.2,0,14.1l0.2,0.2c2,2,4.5,2.9,7.1,2.9
	c2.6,0,5.1-1,7.1-2.9c3.9-3.9,3.9-10.2,0-14.1L268.4,360.7z"/>
<path class="st5" d="M244.6,380.5c-3.9-3.9-10.2-3.9-14.1,0l-21.9,21.9c-1.9,2-2.9,4.5-2.9,7.1s1,5.1,2.9,7.1
	c3.9,3.9,10.2,3.9,14.1,0l21.9-21.9C248.5,390.8,248.5,384.4,244.6,380.5z"/>
<path class="st6" d="M748,388"/>
<path class="st6" d="M27,251"/>
<path class="st5" d="M215.1,352.8c-3.9-3.9-10.2-3.9-14.1,0L179,374.7c-1.9,2-2.9,4.5-2.9,7.1s1,5.1,2.9,7.1
	c3.9,3.9,10.2,3.9,14.1,0l21.9-21.9C219,363,219,356.7,215.1,352.8z"/>
</svg>
