<?xml version="1.0" encoding="UTF-8" standalone="no"?>
<!DOCTYPE svg PUBLIC "-//W3C//DTD SVG 1.1//EN"
 "http://www.w3.org/Graphics/SVG/1.1/DTD/svg11.dtd">
<!-- Generated by graphviz version 2.40.1 (20161225.0304)
 -->
<!-- Title: dependencies Pages: 1 -->
<svg width="945pt" height="211pt"
 viewBox="0.00 0.00 945.00 211.00" xmlns="http://www.w3.org/2000/svg" xmlns:xlink="http://www.w3.org/1999/xlink">
<g id="graph0" class="graph" transform="scale(1 1) rotate(0) translate(4 207)">
<title>dependencies</title>
<polygon fill="#ffffff" stroke="transparent" points="-4,4 -4,-207 941,-207 941,4 -4,4"/>
<text text-anchor="start" x="447.5091" y="-42.4" font-family="sans-serif" font-weight="bold" font-size="14.00" fill="#000000">Legend</text>
<polygon fill="#ffffb3" stroke="transparent" points="234.5,-10 234.5,-30 254.5,-30 254.5,-10 234.5,-10"/>
<text text-anchor="start" x="258.129" y="-15.4" font-family="sans-serif" font-size="14.00" fill="#000000"> &#160;Declarations</text>
<polygon fill="#8dd3c7" stroke="transparent" points="347.5,-10 347.5,-30 367.5,-30 367.5,-10 347.5,-10"/>
<text text-anchor="start" x="371.2251" y="-15.4" font-family="sans-serif" font-size="14.00" fill="#000000"> &#160;Module</text>
<polygon fill="#80b1d3" stroke="transparent" points="433.5,-10 433.5,-30 453.5,-30 453.5,-10 433.5,-10"/>
<text text-anchor="start" x="457.2812" y="-15.4" font-family="sans-serif" font-size="14.00" fill="#000000"> &#160;Bootstrap</text>
<polygon fill="#fdb462" stroke="transparent" points="530.5,-10 530.5,-30 550.5,-30 550.5,-10 530.5,-10"/>
<text text-anchor="start" x="554.1732" y="-15.4" font-family="sans-serif" font-size="14.00" fill="#000000"> &#160;Providers</text>
<polygon fill="#fb8072" stroke="transparent" points="626.5,-10 626.5,-30 646.5,-30 646.5,-10 626.5,-10"/>
<text text-anchor="start" x="650.2258" y="-15.4" font-family="sans-serif" font-size="14.00" fill="#000000"> &#160;Exports</text>
<g id="clust1" class="cluster">
<title>cluster_TrashModule</title>
<polygon fill="none" stroke="#000000" stroke-dasharray="1,5" points="8,-70 8,-195 929,-195 929,-70 8,-70"/>
</g>
<g id="clust2" class="cluster">
<title>cluster_TrashModule_declarations</title>
<polygon fill="none" stroke="#000000" points="450,-78 450,-130 921,-130 921,-78 450,-78"/>
</g>
<g id="clust6" class="cluster">
<title>cluster_TrashModule_imports</title>
<polygon fill="none" stroke="#000000" points="16,-78 16,-130 442,-130 442,-78 16,-78"/>
</g>
<!-- CommentTrashComponent -->
<g id="node1" class="node">
<title>CommentTrashComponent</title>
<polygon fill="#ffffb3" stroke="#000000" points="913.4283,-122 744.5717,-122 744.5717,-86 913.4283,-86 913.4283,-122"/>
<text text-anchor="middle" x="829" y="-99.8" font-family="Times,serif" font-size="14.00" fill="#000000">CommentTrashComponent</text>
</g>
<!-- TrashModule -->
<g id="node4" class="node">
<title>TrashModule</title>
<polygon fill="#8dd3c7" stroke="#000000" points="495.9232,-187 492.9232,-191 471.9232,-191 468.9232,-187 404.0768,-187 404.0768,-151 495.9232,-151 495.9232,-187"/>
<text text-anchor="middle" x="450" y="-164.8" font-family="Times,serif" font-size="14.00" fill="#000000">TrashModule</text>
</g>
<!-- CommentTrashComponent&#45;&gt;TrashModule -->
<g id="edge1" class="edge">
<title>CommentTrashComponent&#45;&gt;TrashModule</title>
<path fill="none" stroke="#000000" d="M829,-122.2843C829,-143.3211 829,-175 829,-175 829,-175 505.7163,-175 505.7163,-175"/>
<polygon fill="#000000" stroke="#000000" points="505.7163,-171.5001 495.7163,-175 505.7162,-178.5001 505.7163,-171.5001"/>
</g>
<!-- PostTrashComponent -->
<g id="node2" class="node">
<title>PostTrashComponent</title>
<polygon fill="#ffffb3" stroke="#000000" points="726.823,-122 589.177,-122 589.177,-86 726.823,-86 726.823,-122"/>
<text text-anchor="middle" x="658" y="-99.8" font-family="Times,serif" font-size="14.00" fill="#000000">PostTrashComponent</text>
</g>
<!-- PostTrashComponent&#45;&gt;TrashModule -->
<g id="edge2" class="edge">
<title>PostTrashComponent&#45;&gt;TrashModule</title>
<path fill="none" stroke="#000000" d="M658,-122.0225C658,-139.3734 658,-163 658,-163 658,-163 505.904,-163 505.904,-163"/>
<polygon fill="#000000" stroke="#000000" points="505.904,-159.5001 495.904,-163 505.9039,-166.5001 505.904,-159.5001"/>
</g>
<!-- TrashComponent -->
<g id="node3" class="node">
<title>TrashComponent</title>
<polygon fill="#ffffb3" stroke="#000000" points="571.705,-122 458.295,-122 458.295,-86 571.705,-86 571.705,-122"/>
<text text-anchor="middle" x="515" y="-99.8" font-family="Times,serif" font-size="14.00" fill="#000000">TrashComponent</text>
</g>
<!-- TrashComponent&#45;&gt;TrashModule -->
<g id="edge3" class="edge">
<title>TrashComponent&#45;&gt;TrashModule</title>
<path fill="none" stroke="#000000" d="M477.0544,-122.1061C477.0544,-122.1061 477.0544,-140.991 477.0544,-140.991"/>
<polygon fill="#000000" stroke="#000000" points="473.5544,-140.9909 477.0544,-150.991 480.5544,-140.991 473.5544,-140.9909"/>
</g>
<!-- SharedModule -->
<g id="node5" class="node">
<title>SharedModule</title>
<polygon fill="#8dd3c7" stroke="#000000" points="434.4231,-122 431.4231,-126 410.4231,-126 407.4231,-122 335.5769,-122 335.5769,-86 434.4231,-86 434.4231,-122"/>
<text text-anchor="middle" x="385" y="-99.8" font-family="Times,serif" font-size="14.00" fill="#000000">SharedModule</text>
</g>
<!-- SharedModule&#45;&gt;TrashModule -->
<g id="edge4" class="edge">
<title>SharedModule&#45;&gt;TrashModule</title>
<path fill="none" stroke="#000000" d="M419.25,-122.1061C419.25,-122.1061 419.25,-140.991 419.25,-140.991"/>
<polygon fill="#000000" stroke="#000000" points="415.7501,-140.9909 419.25,-150.991 422.7501,-140.991 415.7501,-140.9909"/>
</g>
<!-- TrashMaterialModule -->
<g id="node6" class="node">
<title>TrashMaterialModule</title>
<polygon fill="#8dd3c7" stroke="#000000" points="317.3431,-122 314.3431,-126 293.3431,-126 290.3431,-122 178.6569,-122 178.6569,-86 317.3431,-86 317.3431,-122"/>
<text text-anchor="middle" x="248" y="-99.8" font-family="Times,serif" font-size="14.00" fill="#000000">TrashMaterialModule</text>
</g>
<!-- TrashMaterialModule&#45;&gt;TrashModule -->
<g id="edge5" class="edge">
<title>TrashMaterialModule&#45;&gt;TrashModule</title>
<path fill="none" stroke="#000000" d="M248,-122.0225C248,-139.3734 248,-163 248,-163 248,-163 394.1631,-163 394.1631,-163"/>
<polygon fill="#000000" stroke="#000000" points="394.1631,-166.5001 404.1631,-163 394.163,-159.5001 394.1631,-166.5001"/>
</g>
<!-- TrashRoutingModule -->
<g id="node7" class="node">
<title>TrashRoutingModule</title>
<polygon fill="#8dd3c7" stroke="#000000" points="160.0408,-122 157.0408,-126 136.0408,-126 133.0408,-122 23.9592,-122 23.9592,-86 160.0408,-86 160.0408,-122"/>
<text text-anchor="middle" x="92" y="-99.8" font-family="Times,serif" font-size="14.00" fill="#000000">TrashRoutingModule</text>
</g>
<!-- TrashRoutingModule&#45;&gt;TrashModule -->
<g id="edge6" class="edge">
<title>TrashRoutingModule&#45;&gt;TrashModule</title>
<path fill="none" stroke="#000000" d="M92,-122.2843C92,-143.3211 92,-175 92,-175 92,-175 393.9307,-175 393.9307,-175"/>
<polygon fill="#000000" stroke="#000000" points="393.9307,-178.5001 403.9307,-175 393.9306,-171.5001 393.9307,-178.5001"/>
</g>
</g>
</svg>
