<?xml version="1.0" encoding="UTF-8" standalone="no"?>
<!DOCTYPE svg PUBLIC "-//W3C//DTD SVG 1.1//EN"
 "http://www.w3.org/Graphics/SVG/1.1/DTD/svg11.dtd">
<!-- Generated by graphviz version 2.40.1 (20161225.0304)
 -->
<!-- Title: dependencies Pages: 1 -->
<svg width="1198pt" height="211pt"
 viewBox="0.00 0.00 1198.00 211.00" xmlns="http://www.w3.org/2000/svg" xmlns:xlink="http://www.w3.org/1999/xlink">
<g id="graph0" class="graph" transform="scale(1 1) rotate(0) translate(4 207)">
<title>dependencies</title>
<polygon fill="#ffffff" stroke="transparent" points="-4,4 -4,-207 1194,-207 1194,4 -4,4"/>
<text text-anchor="start" x="574.0091" y="-42.4" font-family="sans-serif" font-weight="bold" font-size="14.00" fill="#000000">Legend</text>
<polygon fill="#ffffb3" stroke="transparent" points="361,-10 361,-30 381,-30 381,-10 361,-10"/>
<text text-anchor="start" x="384.629" y="-15.4" font-family="sans-serif" font-size="14.00" fill="#000000"> &#160;Declarations</text>
<polygon fill="#8dd3c7" stroke="transparent" points="474,-10 474,-30 494,-30 494,-10 474,-10"/>
<text text-anchor="start" x="497.7251" y="-15.4" font-family="sans-serif" font-size="14.00" fill="#000000"> &#160;Module</text>
<polygon fill="#80b1d3" stroke="transparent" points="560,-10 560,-30 580,-30 580,-10 560,-10"/>
<text text-anchor="start" x="583.7812" y="-15.4" font-family="sans-serif" font-size="14.00" fill="#000000"> &#160;Bootstrap</text>
<polygon fill="#fdb462" stroke="transparent" points="657,-10 657,-30 677,-30 677,-10 657,-10"/>
<text text-anchor="start" x="680.6732" y="-15.4" font-family="sans-serif" font-size="14.00" fill="#000000"> &#160;Providers</text>
<polygon fill="#fb8072" stroke="transparent" points="753,-10 753,-30 773,-30 773,-10 753,-10"/>
<text text-anchor="start" x="776.7258" y="-15.4" font-family="sans-serif" font-size="14.00" fill="#000000"> &#160;Exports</text>
<g id="clust1" class="cluster">
<title>cluster_HomeModule</title>
<polygon fill="none" stroke="#000000" stroke-dasharray="1,5" points="8,-70 8,-195 1182,-195 1182,-70 8,-70"/>
</g>
<g id="clust2" class="cluster">
<title>cluster_HomeModule_declarations</title>
<polygon fill="none" stroke="#000000" points="559,-78 559,-130 1174,-130 1174,-78 559,-78"/>
</g>
<g id="clust7" class="cluster">
<title>cluster_HomeModule_imports</title>
<polygon fill="none" stroke="#000000" points="16,-78 16,-130 551,-130 551,-78 16,-78"/>
</g>
<!-- CreateUpdatePostComponent -->
<g id="node1" class="node">
<title>CreateUpdatePostComponent</title>
<polygon fill="#ffffb3" stroke="#000000" points="1166.4087,-122 983.5913,-122 983.5913,-86 1166.4087,-86 1166.4087,-122"/>
<text text-anchor="middle" x="1075" y="-99.8" font-family="Times,serif" font-size="14.00" fill="#000000">CreateUpdatePostComponent</text>
</g>
<!-- HomeModule -->
<g id="node5" class="node">
<title>HomeModule</title>
<polygon fill="#8dd3c7" stroke="#000000" points="606.7619,-187 603.7619,-191 582.7619,-191 579.7619,-187 513.2381,-187 513.2381,-151 606.7619,-151 606.7619,-187"/>
<text text-anchor="middle" x="560" y="-164.8" font-family="Times,serif" font-size="14.00" fill="#000000">HomeModule</text>
</g>
<!-- CreateUpdatePostComponent&#45;&gt;HomeModule -->
<g id="edge1" class="edge">
<title>CreateUpdatePostComponent&#45;&gt;HomeModule</title>
<path fill="none" stroke="#000000" d="M1075,-122.2921C1075,-144.2057 1075,-178 1075,-178 1075,-178 617.0681,-178 617.0681,-178"/>
<polygon fill="#000000" stroke="#000000" points="617.0681,-174.5001 607.0681,-178 617.068,-181.5001 617.0681,-174.5001"/>
</g>
<!-- DashboardComponent -->
<g id="node2" class="node">
<title>DashboardComponent</title>
<polygon fill="#ffffb3" stroke="#000000" points="965.9734,-122 824.0266,-122 824.0266,-86 965.9734,-86 965.9734,-122"/>
<text text-anchor="middle" x="895" y="-99.8" font-family="Times,serif" font-size="14.00" fill="#000000">DashboardComponent</text>
</g>
<!-- DashboardComponent&#45;&gt;HomeModule -->
<g id="edge2" class="edge">
<title>DashboardComponent&#45;&gt;HomeModule</title>
<path fill="none" stroke="#000000" d="M895,-122.1061C895,-141.3391 895,-169 895,-169 895,-169 616.9331,-169 616.9331,-169"/>
<polygon fill="#000000" stroke="#000000" points="616.9331,-165.5001 606.9331,-169 616.933,-172.5001 616.9331,-165.5001"/>
</g>
<!-- HomeComponent -->
<g id="node3" class="node">
<title>HomeComponent</title>
<polygon fill="#ffffb3" stroke="#000000" points="805.5451,-122 690.4549,-122 690.4549,-86 805.5451,-86 805.5451,-122"/>
<text text-anchor="middle" x="748" y="-99.8" font-family="Times,serif" font-size="14.00" fill="#000000">HomeComponent</text>
</g>
<!-- HomeComponent&#45;&gt;HomeModule -->
<g id="edge3" class="edge">
<title>HomeComponent&#45;&gt;HomeModule</title>
<path fill="none" stroke="#000000" d="M748,-122.027C748,-138.3976 748,-160 748,-160 748,-160 616.9554,-160 616.9554,-160"/>
<polygon fill="#000000" stroke="#000000" points="616.9554,-156.5001 606.9554,-160 616.9553,-163.5001 616.9554,-156.5001"/>
</g>
<!-- PostComponent -->
<g id="node4" class="node">
<title>PostComponent</title>
<polygon fill="#ffffb3" stroke="#000000" points="672.9512,-122 567.0488,-122 567.0488,-86 672.9512,-86 672.9512,-122"/>
<text text-anchor="middle" x="620" y="-99.8" font-family="Times,serif" font-size="14.00" fill="#000000">PostComponent</text>
</g>
<!-- PostComponent&#45;&gt;HomeModule -->
<g id="edge4" class="edge">
<title>PostComponent&#45;&gt;HomeModule</title>
<path fill="none" stroke="#000000" d="M587.0779,-122.1061C587.0779,-122.1061 587.0779,-140.991 587.0779,-140.991"/>
<polygon fill="#000000" stroke="#000000" points="583.5779,-140.9909 587.0779,-150.991 590.5779,-140.991 583.5779,-140.9909"/>
</g>
<!-- CoreModule -->
<g id="node6" class="node">
<title>CoreModule</title>
<polygon fill="#8dd3c7" stroke="#000000" points="543.2619,-122 540.2619,-126 519.2619,-126 516.2619,-122 456.7381,-122 456.7381,-86 543.2619,-86 543.2619,-122"/>
<text text-anchor="middle" x="500" y="-99.8" font-family="Times,serif" font-size="14.00" fill="#000000">CoreModule</text>
</g>
<!-- CoreModule&#45;&gt;HomeModule -->
<g id="edge5" class="edge">
<title>CoreModule&#45;&gt;HomeModule</title>
<path fill="none" stroke="#000000" d="M528.25,-122.1061C528.25,-122.1061 528.25,-140.991 528.25,-140.991"/>
<polygon fill="#000000" stroke="#000000" points="524.7501,-140.9909 528.25,-150.991 531.7501,-140.991 524.7501,-140.9909"/>
</g>
<!-- HomeMaterialModule -->
<g id="node7" class="node">
<title>HomeMaterialModule</title>
<polygon fill="#8dd3c7" stroke="#000000" points="438.6825,-122 435.6825,-126 414.6825,-126 411.6825,-122 297.3175,-122 297.3175,-86 438.6825,-86 438.6825,-122"/>
<text text-anchor="middle" x="368" y="-99.8" font-family="Times,serif" font-size="14.00" fill="#000000">HomeMaterialModule</text>
</g>
<!-- HomeMaterialModule&#45;&gt;HomeModule -->
<g id="edge6" class="edge">
<title>HomeMaterialModule&#45;&gt;HomeModule</title>
<path fill="none" stroke="#000000" d="M368,-122.027C368,-138.3976 368,-160 368,-160 368,-160 503.0315,-160 503.0315,-160"/>
<polygon fill="#000000" stroke="#000000" points="503.0316,-163.5001 513.0315,-160 503.0315,-156.5001 503.0316,-163.5001"/>
</g>
<!-- HomeRoutingModule -->
<g id="node8" class="node">
<title>HomeRoutingModule</title>
<polygon fill="#8dd3c7" stroke="#000000" points="279.3795,-122 276.3795,-126 255.3795,-126 252.3795,-122 140.6205,-122 140.6205,-86 279.3795,-86 279.3795,-122"/>
<text text-anchor="middle" x="210" y="-99.8" font-family="Times,serif" font-size="14.00" fill="#000000">HomeRoutingModule</text>
</g>
<!-- HomeRoutingModule&#45;&gt;HomeModule -->
<g id="edge7" class="edge">
<title>HomeRoutingModule&#45;&gt;HomeModule</title>
<path fill="none" stroke="#000000" d="M210,-122.1061C210,-141.3391 210,-169 210,-169 210,-169 503.1606,-169 503.1606,-169"/>
<polygon fill="#000000" stroke="#000000" points="503.1606,-172.5001 513.1606,-169 503.1606,-165.5001 503.1606,-172.5001"/>
</g>
<!-- SharedModule -->
<g id="node9" class="node">
<title>SharedModule</title>
<polygon fill="#8dd3c7" stroke="#000000" points="122.4231,-122 119.4231,-126 98.4231,-126 95.4231,-122 23.5769,-122 23.5769,-86 122.4231,-86 122.4231,-122"/>
<text text-anchor="middle" x="73" y="-99.8" font-family="Times,serif" font-size="14.00" fill="#000000">SharedModule</text>
</g>
<!-- SharedModule&#45;&gt;HomeModule -->
<g id="edge8" class="edge">
<title>SharedModule&#45;&gt;HomeModule</title>
<path fill="none" stroke="#000000" d="M73,-122.2921C73,-144.2057 73,-178 73,-178 73,-178 502.8619,-178 502.8619,-178"/>
<polygon fill="#000000" stroke="#000000" points="502.8619,-181.5001 512.8619,-178 502.8619,-174.5001 502.8619,-181.5001"/>
</g>
</g>
</svg>
